<svg width="16" height="25" viewBox="0 0 16 25" fill="none" xmlns="http://www.w3.org/2000/svg">
<path d="M14.4201 15.6942H5.11537L5.58256 14.7427L13.3451 14.7286C13.6076 14.7286 13.8326 14.5411 13.8794 14.2817L14.9544 8.26455C14.9826 8.10674 14.9404 7.94424 14.8372 7.8208C14.7863 7.76005 14.7227 7.71112 14.6509 7.67739C14.5792 7.64366 14.5009 7.62595 14.4216 7.62549L4.54662 7.59268L4.46224 7.1958C4.40912 6.94268 4.18099 6.7583 3.92162 6.7583H1.50756C1.36127 6.7583 1.22098 6.81641 1.11754 6.91985C1.0141 7.02329 0.955994 7.16358 0.955994 7.30986C0.955994 7.45615 1.0141 7.59644 1.11754 7.69988C1.22098 7.80331 1.36127 7.86143 1.50756 7.86143H3.47474L3.84349 9.61455L4.75131 14.0099L3.58256 15.9177C3.52186 15.9996 3.4853 16.0969 3.47702 16.1985C3.46874 16.3001 3.48906 16.402 3.53568 16.4927C3.62943 16.6786 3.81849 16.7958 4.02787 16.7958H5.00912C4.79993 17.0736 4.68694 17.4121 4.68724 17.7599C4.68724 18.6442 5.40599 19.363 6.29037 19.363C7.17474 19.363 7.89349 18.6442 7.89349 17.7599C7.89349 17.4114 7.77787 17.0724 7.57162 16.7958H10.0888C9.87962 17.0736 9.76662 17.4121 9.76693 17.7599C9.76693 18.6442 10.4857 19.363 11.3701 19.363C12.2544 19.363 12.9732 18.6442 12.9732 17.7599C12.9732 17.4114 12.8576 17.0724 12.6513 16.7958H14.4216C14.7247 16.7958 14.9732 16.5489 14.9732 16.2442C14.9723 16.0981 14.9136 15.9583 14.81 15.8552C14.7064 15.7522 14.5662 15.6943 14.4201 15.6942V15.6942ZM4.77631 8.68018L13.7732 8.70986L12.8919 13.6442L5.82474 13.6567L4.77631 8.68018ZM6.29037 18.2536C6.01849 18.2536 5.79662 18.0317 5.79662 17.7599C5.79662 17.488 6.01849 17.2661 6.29037 17.2661C6.56224 17.2661 6.78412 17.488 6.78412 17.7599C6.78412 17.8908 6.7321 18.0164 6.6395 18.109C6.54691 18.2016 6.42132 18.2536 6.29037 18.2536V18.2536ZM11.3701 18.2536C11.0982 18.2536 10.8763 18.0317 10.8763 17.7599C10.8763 17.488 11.0982 17.2661 11.3701 17.2661C11.6419 17.2661 11.8638 17.488 11.8638 17.7599C11.8638 17.8908 11.8118 18.0164 11.7192 18.109C11.6266 18.2016 11.501 18.2536 11.3701 18.2536V18.2536Z" fill="white"/>
</svg>
