<svg width="65" height="15" viewBox="0 0 65 15" fill="none" xmlns="http://www.w3.org/2000/svg">
<path d="M1.92188 11.763H-2.33594V0.489563H1.9375C2.90104 0.489563 3.67969 0.747375 4.27344 1.263C4.8724 1.77863 5.17188 2.45831 5.17188 3.30206C5.17188 3.8906 4.98177 4.42446 4.60156 4.90363C4.22656 5.37758 3.76823 5.66404 3.22656 5.763V5.8255C3.99219 5.92446 4.60156 6.22394 5.05469 6.72394C5.51302 7.22394 5.74219 7.84894 5.74219 8.59894C5.74219 9.59373 5.40365 10.3698 4.72656 10.9271C4.05469 11.4844 3.11979 11.763 1.92188 11.763ZM-0.929688 1.73175V5.34894H1.17969C2.01302 5.34894 2.64844 5.18748 3.08594 4.86456C3.52865 4.54165 3.75 4.0755 3.75 3.46613C3.75 2.90883 3.5651 2.48175 3.19531 2.18488C2.82552 1.88279 2.29948 1.73175 1.61719 1.73175H-0.929688ZM-0.929688 10.5208H1.71094C2.5599 10.5208 3.20312 10.3515 3.64062 10.013C4.07812 9.67446 4.29688 9.17967 4.29688 8.52863C4.29688 7.21613 3.39062 6.55988 1.57812 6.55988H-0.929688V10.5208ZM13.3125 7.48175L17.2188 11.763H15.4688L11.9609 7.85675H11.8984V11.763H10.5547V3.638H11.8984V7.23175H11.9609L15.4297 3.638H17.1094L13.3125 7.48175ZM21.5703 11.9036C20.4349 11.9036 19.5234 11.526 18.8359 10.7708C18.1484 10.0104 17.8047 8.98696 17.8047 7.7005C17.8047 6.41404 18.1484 5.39321 18.8359 4.638C19.5234 3.87758 20.4349 3.49738 21.5703 3.49738C22.7005 3.49738 23.6094 3.87758 24.2969 4.638C24.9844 5.39321 25.3281 6.41404 25.3281 7.7005C25.3281 8.98175 24.9844 10.0026 24.2969 10.763C23.6094 11.5234 22.7005 11.9036 21.5703 11.9036ZM19.8281 9.91144C20.2604 10.4427 20.8411 10.7083 21.5703 10.7083C22.2995 10.7083 22.8776 10.4453 23.3047 9.91925C23.7318 9.388 23.9453 8.64842 23.9453 7.7005C23.9453 6.75258 23.7318 6.0156 23.3047 5.48956C22.8776 4.95831 22.2995 4.69269 21.5703 4.69269C20.8411 4.69269 20.2604 4.95831 19.8281 5.48956C19.401 6.02081 19.1875 6.75779 19.1875 7.7005C19.1875 8.64321 19.401 9.38019 19.8281 9.91144ZM30.7891 3.49738C31.8307 3.49738 32.6693 3.88019 33.3047 4.64581C33.9453 5.41144 34.2656 6.42967 34.2656 7.7005C34.2656 8.96613 33.9479 9.98435 33.3125 10.7552C32.6771 11.5208 31.8464 11.9036 30.8203 11.9036C30.2474 11.9036 29.7344 11.7734 29.2812 11.513C28.8281 11.2526 28.4792 10.8958 28.2344 10.4427H28.2031V14.4739H26.8438V3.638H28.1328V5.013H28.1641C28.4193 4.54425 28.776 4.17446 29.2344 3.90363C29.6927 3.63279 30.2109 3.49738 30.7891 3.49738ZM30.5234 10.7083C31.2474 10.7083 31.8203 10.4375 32.2422 9.89581C32.6641 9.35415 32.875 8.62238 32.875 7.7005C32.875 6.77863 32.6641 6.04685 32.2422 5.50519C31.8203 4.96352 31.2474 4.69269 30.5234 4.69269C29.8255 4.69269 29.263 4.96873 28.8359 5.52081C28.4089 6.0729 28.1953 6.79946 28.1953 7.7005C28.1953 8.60675 28.4089 9.33592 28.8359 9.888C29.263 10.4349 29.8255 10.7083 30.5234 10.7083ZM38.4844 11.9036C37.5885 11.9036 36.8464 11.7005 36.2578 11.2943C35.6693 10.8828 35.3411 10.3359 35.2734 9.65363H36.6484C36.7266 10.0078 36.9245 10.2838 37.2422 10.4818C37.5651 10.6797 37.9792 10.7786 38.4844 10.7786C39.0625 10.7786 39.513 10.6562 39.8359 10.4114C40.1589 10.1614 40.3203 9.83331 40.3203 9.42706C40.3203 8.97394 40.1693 8.6406 39.8672 8.42706C39.5651 8.20831 39.1042 8.09894 38.4844 8.09894H37.2656V6.98956H38.4844C39.526 6.98956 40.0469 6.59373 40.0469 5.80206C40.0469 5.4479 39.9167 5.16404 39.6562 4.9505C39.401 4.73696 39.0208 4.63019 38.5156 4.63019C38.0365 4.63019 37.6406 4.72654 37.3281 4.91925C37.0156 5.11196 36.8307 5.36977 36.7734 5.69269H35.4531C35.5417 5.02081 35.8594 4.48696 36.4062 4.09113C36.9531 3.69529 37.6562 3.49738 38.5156 3.49738C39.4219 3.49738 40.125 3.6979 40.625 4.09894C41.125 4.49477 41.375 5.02602 41.375 5.69269C41.375 6.10935 41.25 6.48175 41 6.80988C40.7552 7.138 40.4323 7.34894 40.0312 7.44269V7.50519C40.5573 7.61977 40.9583 7.84113 41.2344 8.16925C41.5156 8.49217 41.6562 8.8906 41.6562 9.36456C41.6562 10.125 41.3646 10.7396 40.7812 11.2083C40.2031 11.6719 39.4375 11.9036 38.4844 11.9036ZM44.5547 11.763H43.2109V3.638H44.5547V9.68488H44.6172L48.6797 3.638H50.0234V11.763H48.6797V5.71613H48.6172L44.5547 11.763ZM57.2812 11.763V8.10675H53.2734V11.763H51.9297V3.638H53.2734V6.98956H57.2812V3.638H58.625V11.763H57.2812ZM61.2188 14.8021C60.974 14.8021 60.7786 14.7864 60.6328 14.7552V13.6146C60.7578 13.6406 60.9349 13.6536 61.1641 13.6536C61.5443 13.6536 61.849 13.5521 62.0781 13.3489C62.3073 13.151 62.5 12.8151 62.6562 12.3411L62.8438 11.7708L59.8438 3.638H61.2969L63.5469 10.4036H63.5703L65.8203 3.638H67.25L64.0547 12.3333C63.7057 13.2812 63.3281 13.9297 62.9219 14.2786C62.5208 14.6276 61.9531 14.8021 61.2188 14.8021Z" fill="white"/>
</svg>
